<svg width="1200" height="900" viewBox="0 0 1200 900" fill="none" xmlns="http://www.w3.org/2000/svg">
  <defs>
    <linearGradient id="bg" x1="0" y1="0" x2="1200" y2="900" gradientUnits="userSpaceOnUse">
      <stop stop-color="#1d1912" />
      <stop offset="1" stop-color="#0f0c08" />
    </linearGradient>
    <linearGradient id="gold" x1="0" y1="0" x2="1200" y2="0" gradientUnits="userSpaceOnUse">
      <stop stop-color="#d4af78" />
      <stop offset="1" stop-color="#f6e1b5" />
    </linearGradient>
  </defs>
  <rect width="1200" height="900" fill="url(#bg)" />
  <path d="M140 760C260 560 460 560 600 700C730 840 920 740 1060 560" stroke="rgba(212,175,120,0.35)" stroke-width="30" stroke-linecap="round" />
  <path d="M180 640C320 500 520 520 660 610C780 680 930 620 1040 500" stroke="rgba(255,255,255,0.12)" stroke-width="18" stroke-linecap="round" />
  <rect x="100" y="100" width="1000" height="560" rx="36" fill="rgba(255,255,255,0.05)" stroke="rgba(255,255,255,0.08)" />
  <path d="M180 180L300 260L450 220L600 280L750 230L900 285L980 250" stroke="rgba(212,175,120,0.4)" stroke-width="14" stroke-linecap="round" />
  <path d="M240 320C320 260 470 270 540 330C620 400 740 360 820 420C900 480 980 420 1020 380" stroke="rgba(255,255,255,0.22)" stroke-width="16" stroke-linecap="round" />
  <text x="120" y="540" font-family="Playfair Display, serif" font-size="72" fill="url(#gold)">Clara Moreno</text>
  <text x="120" y="620" font-family="Inter, sans-serif" font-size="30" fill="#f7f3ef">Ateliê de Vestidos</text>
  <text x="120" y="680" font-family="Inter, sans-serif" font-size="20" fill="#c1b8af">Moda sob medida com toque de luxo</text>
</svg>
